<mxfile host="app.diagrams.net" agent="Mozilla/5.0 (Windows NT 10.0; Win64; x64) AppleWebKit/537.36 (KHTML, like Gecko) Chrome/135.0.0.0 Safari/537.36" version="26.2.12">
  <diagram name="Page-1" id="KwmoiFCc6jIUMFd17XTd">
    <mxGraphModel dx="1044" dy="562" grid="1" gridSize="10" guides="1" tooltips="1" connect="1" arrows="1" fold="1" page="1" pageScale="1" pageWidth="850" pageHeight="1100" math="0" shadow="0">
      <root>
        <mxCell id="0" />
        <mxCell id="1" parent="0" />
        <mxCell id="Ro6Bo9Ox5CsGzvcltkT8-2" value="" style="edgeStyle=orthogonalEdgeStyle;rounded=0;orthogonalLoop=1;jettySize=auto;html=1;fontSize=14;" parent="1" source="Ro6Bo9Ox5CsGzvcltkT8-3" target="Ro6Bo9Ox5CsGzvcltkT8-6" edge="1">
          <mxGeometry relative="1" as="geometry" />
        </mxCell>
        <mxCell id="Ro6Bo9Ox5CsGzvcltkT8-3" value="Start" style="strokeWidth=2;html=1;shape=mxgraph.flowchart.start_1;whiteSpace=wrap;fontSize=14;" parent="1" vertex="1">
          <mxGeometry x="375" y="310" width="100" height="60" as="geometry" />
        </mxCell>
        <mxCell id="Ro6Bo9Ox5CsGzvcltkT8-4" value="End" style="strokeWidth=2;html=1;shape=mxgraph.flowchart.start_1;whiteSpace=wrap;fontSize=14;" parent="1" vertex="1">
          <mxGeometry x="375" y="970" width="100" height="60" as="geometry" />
        </mxCell>
        <mxCell id="Ro6Bo9Ox5CsGzvcltkT8-5" value="" style="edgeStyle=orthogonalEdgeStyle;rounded=0;orthogonalLoop=1;jettySize=auto;html=1;fontSize=14;" parent="1" source="Ro6Bo9Ox5CsGzvcltkT8-6" target="Ro6Bo9Ox5CsGzvcltkT8-11" edge="1">
          <mxGeometry relative="1" as="geometry" />
        </mxCell>
        <mxCell id="Ro6Bo9Ox5CsGzvcltkT8-6" value="int i = 5" style="whiteSpace=wrap;html=1;strokeWidth=2;fontSize=14;" parent="1" vertex="1">
          <mxGeometry x="365" y="410" width="120" height="60" as="geometry" />
        </mxCell>
        <mxCell id="Ro6Bo9Ox5CsGzvcltkT8-7" value="" style="edgeStyle=orthogonalEdgeStyle;rounded=0;orthogonalLoop=1;jettySize=auto;html=1;fontSize=14;" parent="1" source="Ro6Bo9Ox5CsGzvcltkT8-11" target="Ro6Bo9Ox5CsGzvcltkT8-13" edge="1">
          <mxGeometry relative="1" as="geometry" />
        </mxCell>
        <mxCell id="Ro6Bo9Ox5CsGzvcltkT8-8" value="True" style="edgeLabel;html=1;align=center;verticalAlign=middle;resizable=0;points=[];fontSize=14;" parent="Ro6Bo9Ox5CsGzvcltkT8-7" vertex="1" connectable="0">
          <mxGeometry x="-0.04" relative="1" as="geometry">
            <mxPoint as="offset" />
          </mxGeometry>
        </mxCell>
        <mxCell id="Ro6Bo9Ox5CsGzvcltkT8-9" value="" style="edgeStyle=orthogonalEdgeStyle;rounded=0;orthogonalLoop=1;jettySize=auto;html=1;fontSize=14;" parent="1" source="Ro6Bo9Ox5CsGzvcltkT8-11" target="Ro6Bo9Ox5CsGzvcltkT8-17" edge="1">
          <mxGeometry relative="1" as="geometry">
            <Array as="points">
              <mxPoint x="630" y="550" />
              <mxPoint x="630" y="880" />
            </Array>
          </mxGeometry>
        </mxCell>
        <mxCell id="Ro6Bo9Ox5CsGzvcltkT8-10" value="False" style="edgeLabel;html=1;align=center;verticalAlign=middle;resizable=0;points=[];fontSize=14;" parent="Ro6Bo9Ox5CsGzvcltkT8-9" vertex="1" connectable="0">
          <mxGeometry x="-0.8012" y="2" relative="1" as="geometry">
            <mxPoint as="offset" />
          </mxGeometry>
        </mxCell>
        <mxCell id="Ro6Bo9Ox5CsGzvcltkT8-11" value="i &amp;gt;=&amp;nbsp; 1" style="rhombus;whiteSpace=wrap;html=1;strokeWidth=2;fontSize=14;" parent="1" vertex="1">
          <mxGeometry x="385" y="510" width="80" height="80" as="geometry" />
        </mxCell>
        <mxCell id="Ro6Bo9Ox5CsGzvcltkT8-12" value="" style="edgeStyle=orthogonalEdgeStyle;rounded=0;orthogonalLoop=1;jettySize=auto;html=1;fontSize=14;" parent="1" source="Ro6Bo9Ox5CsGzvcltkT8-13" target="Ro6Bo9Ox5CsGzvcltkT8-15" edge="1">
          <mxGeometry relative="1" as="geometry" />
        </mxCell>
        <mxCell id="Ro6Bo9Ox5CsGzvcltkT8-13" value="Print i" style="shape=parallelogram;perimeter=parallelogramPerimeter;whiteSpace=wrap;html=1;fixedSize=1;strokeWidth=2;fontSize=14;" parent="1" vertex="1">
          <mxGeometry x="365" y="630" width="120" height="60" as="geometry" />
        </mxCell>
        <mxCell id="Ro6Bo9Ox5CsGzvcltkT8-14" value="" style="edgeStyle=orthogonalEdgeStyle;rounded=0;orthogonalLoop=1;jettySize=auto;html=1;entryX=0;entryY=0.5;entryDx=0;entryDy=0;fontSize=14;" parent="1" source="Ro6Bo9Ox5CsGzvcltkT8-15" target="Ro6Bo9Ox5CsGzvcltkT8-11" edge="1">
          <mxGeometry relative="1" as="geometry">
            <mxPoint x="285" y="770" as="targetPoint" />
            <Array as="points">
              <mxPoint x="240" y="770" />
              <mxPoint x="240" y="550" />
            </Array>
          </mxGeometry>
        </mxCell>
        <mxCell id="Ro6Bo9Ox5CsGzvcltkT8-15" value="i--" style="whiteSpace=wrap;html=1;strokeWidth=2;fontSize=14;" parent="1" vertex="1">
          <mxGeometry x="365" y="740" width="120" height="60" as="geometry" />
        </mxCell>
        <mxCell id="Ro6Bo9Ox5CsGzvcltkT8-16" value="" style="edgeStyle=orthogonalEdgeStyle;rounded=0;orthogonalLoop=1;jettySize=auto;html=1;fontSize=14;" parent="1" source="Ro6Bo9Ox5CsGzvcltkT8-17" target="Ro6Bo9Ox5CsGzvcltkT8-4" edge="1">
          <mxGeometry relative="1" as="geometry" />
        </mxCell>
        <mxCell id="Ro6Bo9Ox5CsGzvcltkT8-17" value="" style="ellipse;whiteSpace=wrap;html=1;strokeWidth=2;fontSize=14;" parent="1" vertex="1">
          <mxGeometry x="385" y="840" width="80" height="80" as="geometry" />
        </mxCell>
        <mxCell id="_OgR5kTt4dpkSW3v5mXJ-1" value="&lt;div style=&quot;color: #cccccc;background-color: #1f1f1f;font-family: Consolas, &#39;Courier New&#39;, monospace;font-weight: normal;font-size: 14px;line-height: 19px;white-space: pre;&quot;&gt;&lt;div&gt;&lt;span style=&quot;color: #6a9955;&quot;&gt;// Print 5 4 3 2 1&lt;/span&gt;&lt;/div&gt;&lt;br&gt;&lt;div&gt;&lt;span style=&quot;color: #6a9955;&quot;&gt;// Step 1: Start&lt;/span&gt;&lt;/div&gt;&lt;div&gt;&lt;span style=&quot;color: #6a9955;&quot;&gt;// Step 2: Intialize variable i by 5&lt;/span&gt;&lt;/div&gt;&lt;div&gt;&lt;span style=&quot;color: #6a9955;&quot;&gt;// Step 3: Repeat steps 4-6, if the condition true (i &amp;gt;= 1)&lt;/span&gt;&lt;/div&gt;&lt;div&gt;&lt;span style=&quot;color: #6a9955;&quot;&gt;// Step 4: Print i&lt;/span&gt;&lt;/div&gt;&lt;div&gt;&lt;span style=&quot;color: #6a9955;&quot;&gt;// Step 5: Decrement i by 1&lt;/span&gt;&lt;/div&gt;&lt;div&gt;&lt;span style=&quot;color: #6a9955;&quot;&gt;// Step 6: Go to step 3&lt;/span&gt;&lt;/div&gt;&lt;div&gt;&lt;span style=&quot;color: #6a9955;&quot;&gt;// Step 7: End&lt;/span&gt;&lt;/div&gt;&lt;/div&gt;" style="text;whiteSpace=wrap;html=1;" vertex="1" parent="1">
          <mxGeometry x="60" y="40" width="490" height="190" as="geometry" />
        </mxCell>
      </root>
    </mxGraphModel>
  </diagram>
</mxfile>
